<?xml version="1.0" encoding="UTF-8"?><svg id="Capa_2" xmlns="http://www.w3.org/2000/svg" viewBox="0 0 451.21 88.37"><defs><style>.cls-1{fill:#fff;}.cls-2{fill:none;stroke:#fff;stroke-miterlimit:10;stroke-width:2px;}</style></defs><g id="Capa_1-2"><g><g><path class="cls-1" d="M180.2,36.58c-3.5-3.5-9.17-3.5-12.67,0l-38.7,38.66,12.63,12.65,32.33-32.39c6.99-7.01,18.33-7.01,25.33,0l-18.92-18.92Z"/><path class="cls-1" d="M180.7,10.76h12.69c.03,.31,.03,.69,.03,1.16,0,3.38-1.1,6.19-3.25,8.47-2.15,2.26-4.89,3.38-8.24,3.38s-6.19-1.16-8.49-3.45c-2.29-2.29-3.45-5.12-3.45-8.44s1.13-6.15,3.42-8.44c2.29-2.29,5.13-3.45,8.45-3.45,5.06,0,9.17,2.49,10.81,6.63l-2.42,.85c-1.61-3.25-4.65-4.96-8.38-4.96-2.56,0-4.75,.93-6.5,2.73-1.74,1.81-2.63,4-2.63,6.63s.89,4.85,2.67,6.67c1.81,1.81,4,2.7,6.6,2.7,2.39,0,4.38-.75,5.99-2.26,1.61-1.5,2.57-3.42,2.84-5.78h-10.12v-2.46Z"/><path class="cls-1" d="M213.62,6.46l-.2,2.5c-.21-.03-.55-.03-1-.03-4.35,0-6.77,3.17-6.77,7.93v6.49h-2.63V6.49h2.63v4.13c1.57-2.87,3.83-4.31,6.77-4.31,.48,0,.89,.04,1.2,.14"/><path class="cls-1" d="M237.18,6.49V23.31h-2.64v-2.73c-1.44,2.12-3.56,3.18-6.36,3.18-2.02,0-3.66-.65-4.93-1.98-1.23-1.33-1.84-3.04-1.84-5.2V6.49h2.63v9.6c0,3.14,1.88,5.22,4.65,5.22,3.59,0,5.85-2.46,5.85-6.73V6.49h2.64Z"/><path class="cls-1" d="M263.09,8.58c1.68,1.64,2.5,3.76,2.5,6.35s-.82,4.72-2.5,6.39c-1.64,1.64-3.63,2.46-5.91,2.46-2.91,0-5.13-1.03-6.71-3.11v8.47h-2.6V6.49h2.6v2.7c1.58-2.08,3.79-3.11,6.71-3.11,2.29,0,4.27,.82,5.91,2.5m-1.85,11.11c1.2-1.2,1.81-2.8,1.81-4.75s-.61-3.55-1.81-4.75c-1.2-1.19-2.7-1.81-4.48-1.81-1.67,0-3.15,.61-4.41,1.85-1.27,1.2-1.88,2.77-1.88,4.71s.61,3.49,1.88,4.72c1.26,1.2,2.74,1.81,4.41,1.81,1.78,0,3.28-.58,4.48-1.78"/><path class="cls-1" d="M288.53,8.61c1.74,1.64,2.6,3.72,2.6,6.29s-.86,4.68-2.6,6.36c-1.71,1.67-3.83,2.49-6.32,2.49s-4.66-.82-6.4-2.49c-1.71-1.68-2.56-3.79-2.56-6.36s.85-4.64,2.56-6.29c1.74-1.68,3.86-2.5,6.4-2.5s4.61,.82,6.32,2.5m-1.85,11c1.27-1.23,1.88-2.8,1.88-4.72s-.61-3.45-1.88-4.64c-1.23-1.23-2.74-1.85-4.48-1.85s-3.29,.61-4.55,1.85c-1.26,1.2-1.88,2.77-1.88,4.64s.62,3.49,1.88,4.72c1.26,1.23,2.77,1.85,4.55,1.85s3.25-.62,4.48-1.85"/><path class="cls-1" d="M200.03,56.47c-7.04-6.36-17.87-6.16-24.65,.62l30.75,30.79,12.64-12.65-18.73-18.76Z"/><path class="cls-1" d="M252.19,85.26c3.5,3.5,9.17,3.5,12.67,0l38.7-38.66-12.63-12.65-32.33,32.39c-6.99,7.01-18.33,7.01-25.33,0l18.92,18.92Z"/><path class="cls-1" d="M232.36,65.36c7.03,6.36,17.87,6.17,24.64-.62l-30.74-30.79-12.63,12.65,18.74,18.76Z"/><path class="cls-1" d="M347.76,36.58c-3.5-3.5-9.17-3.5-12.67,0l-38.71,38.66,12.64,12.65,32.33-32.39c6.99-7.01,18.34-7.01,25.33,0l-18.93-18.92Z"/><path class="cls-1" d="M367.6,56.47c-7.03-6.36-17.88-6.16-24.65,.62l30.75,30.79,12.63-12.65-18.73-18.76Z"/><path class="cls-1" d="M396.01,78.88c0,4.95,4.01,8.96,8.96,8.96l46.23,.03v-17.88s-37.27,.04-37.27,.04c-9.9,0-17.92-8.01-17.91-17.91v26.76Z"/><path class="cls-1" d="M396.06,50.78c.48,9.47,8.28,16.99,17.86,16.99l.03-33.82h-17.88s-.02,16.83-.02,16.83Z"/></g><polyline class="cls-2" points="1 87.44 1 67.32 14.13 67.32"/><line class="cls-2" x1="13.28" y1="77.38" x2="1" y2="77.38"/><line class="cls-2" x1="20.41" y1="88.01" x2="20.41" y2="71.21"/><line class="cls-2" x1="27.89" y1="88.01" x2="27.89" y2="65.35"/><line class="cls-2" x1="35.66" y1="88.01" x2="35.66" y2="71.21"/><path class="cls-2" d="M53.09,88.01v-12.05c0-.51-.14-1.01-.42-1.44-.97-1.51-3.76-4.37-9.89-1.12"/><path class="cls-2" d="M52.85,87h-6.12c-.56,0-1.12-.06-1.67-.21-1.51-.4-4.1-1.49-4.1-4.29s2.25-3.8,3.55-4.14c.45-.12,.91-.17,1.37-.17h7.22"/><line class="cls-2" x1="60.44" y1="65.35" x2="60.44" y2="88.01"/><line class="cls-2" x1="89.59" y1="65.35" x2="89.59" y2="88.01"/><path class="cls-2" d="M95.52,79.18h14.19s-.29-4.92-4.58-6.67c-2.02-.82-4.33-.73-6.31,.2-1.86,.88-3.94,2.7-3.94,6.47,0,0-.64,8.19,7.41,8.19,0,0,4.45,.14,5.86-2.4"/><ellipse class="cls-2" cx="82.24" cy="79.64" rx="6.77" ry="7.24"/><circle class="cls-1" cx="20.41" cy="67.64" r="1"/><circle class="cls-1" cx="35.5" cy="67.62" r="1"/></g></g></svg>